<?xml version="1.0" encoding="UTF-8" standalone="no"?>
<svg
   xmlns:dc="http://purl.org/dc/elements/1.1/"
   xmlns:cc="http://creativecommons.org/ns#"
   xmlns:rdf="http://www.w3.org/1999/02/22-rdf-syntax-ns#"
   xmlns:svg="http://www.w3.org/2000/svg"
   xmlns="http://www.w3.org/2000/svg"
   xmlns:sodipodi="http://sodipodi.sourceforge.net/DTD/sodipodi-0.dtd"
   xmlns:inkscape="http://www.inkscape.org/namespaces/inkscape"
   width="80mm"
   height="80mm"
   viewBox="0 0 80 80"
   version="1.1"
   id="svg8"
   inkscape:version="1.0.1 (3bc2e813f5, 2020-09-07)"
   sodipodi:docname="background2.svg">
  <style
     id="style833"></style>
  <defs
     id="defs2" />
  <sodipodi:namedview
     id="base"
     pagecolor="#ffffff"
     bordercolor="#666666"
     borderopacity="1.0"
     inkscape:pageopacity="0.0"
     inkscape:pageshadow="2"
     inkscape:zoom="1.0419012"
     inkscape:cx="156.15353"
     inkscape:cy="123.91208"
     inkscape:document-units="mm"
     inkscape:current-layer="layer1"
     inkscape:document-rotation="0"
     showgrid="false"
     inkscape:window-width="1920"
     inkscape:window-height="1017"
     inkscape:window-x="-8"
     inkscape:window-y="-8"
     inkscape:window-maximized="1" />
  <metadata
     id="metadata5">
    <rdf:RDF>
      <cc:Work
         rdf:about="">
        <dc:format>image/svg+xml</dc:format>
        <dc:type
           rdf:resource="http://purl.org/dc/dcmitype/StillImage" />
        <dc:title></dc:title>
      </cc:Work>
    </rdf:RDF>
  </metadata>
  <g
     inkscape:label="Calque 1"
     inkscape:groupmode="layer"
     id="layer1">
    <path
       fill="currentColor"
       d="m 9.9987861,7.105778 c 0.01,0.05649 0.1935099,1.135817 0.1935099,1.548077 0,0.628606 -0.3341299,1.076923 -0.8281199,1.257211 l 0.15505,2.861779 c 0.008,0.164664 -0.1226,0.304087 -0.28847,0.304087 h -0.76923 c -0.16466,0 -0.29687,-0.138221 -0.28846,-0.304087 l 0.15505,-2.861779 c -0.49519,-0.180288 -0.82812,-0.629807 -0.82812,-1.257211 0,-0.413462 0.18389,-1.491587 0.1935,-1.548077 0.0385,-0.24399 0.54448,-0.247596 0.57573,0.01322 v 1.697116 c 0.0156,0.04086 0.18149,0.03846 0.1923,0 0.0168,-0.304087 0.095,-1.673077 0.0962,-1.704327 0.0397,-0.25 0.53726,-0.25 0.57572,0 0.002,0.03245 0.0793,1.40024 0.0962,1.704327 0.0108,0.03846 0.17789,0.04086 0.19231,0 V 7.118998 c 0.0312,-0.259615 0.53846,-0.257211 0.57692,-0.01322 z m 1.4326999,3.433894 -0.18029,2.22476 c -0.0144,0.168269 0.11899,0.3125 0.28726,0.3125 h 0.67307 c 0.15986,0 0.28847,-0.128606 0.28847,-0.288462 V 7.211547 c 0,-0.158654 -0.12861,-0.288461 -0.28847,-0.288461 -0.99158,0 -2.6610499,2.145433 -0.78004,3.616586 z"
       id="path995"
       style="fill:#9356dc;fill-opacity:1;stroke-width:0.0120192" />
    <path
       fill="currentColor"
       d="M 32.386487,8.884584 31.859638,8.043576 c -0.04708,-0.0755 -0.130697,-0.121768 -0.219994,-0.121768 h -3.279612 c -0.0893,0 -0.17291,0.04627 -0.219994,0.121768 L 27.61319,8.884584 c -0.271948,0.434305 -0.03085,1.038273 0.47733,1.107275 0.03653,0.0049 0.07387,0.0073 0.111214,0.0073 0.240289,0 0.452976,-0.105532 0.599098,-0.268701 0.146121,0.163169 0.35962,0.268701 0.599097,0.268701 0.240288,0 0.452976,-0.105532 0.599098,-0.268701 0.146121,0.163169 0.35962,0.268701 0.599097,0.268701 0.240288,0 0.452976,-0.105532 0.599097,-0.268701 0.146934,0.163169 0.359621,0.268701 0.599098,0.268701 0.03815,0 0.07468,-0.0024 0.111214,-0.0073 0.509801,-0.06819 0.751713,-0.672158 0.478954,-1.107275 z m -0.588545,1.375164 c -0.08118,0 -0.161545,-0.01218 -0.239476,-0.03085 v 0.810162 h -3.117255 v -0.810162 c -0.07793,0.01786 -0.158298,0.03085 -0.239477,0.03085 -0.04871,0 -0.09823,-0.0032 -0.146121,-0.0097 -0.04546,-0.0065 -0.09011,-0.01705 -0.133133,-0.02922 v 1.597592 c 0,0.143686 0.116085,0.259772 0.259771,0.259772 h 3.636798 c 0.143686,0 0.259771,-0.116086 0.259771,-0.259772 v -1.597592 c -0.04384,0.01299 -0.08767,0.02354 -0.133133,0.02922 -0.04952,0.0065 -0.09823,0.0097 -0.147745,0.0097 z"
       id="path1016"
       style="fill:#ff79da;fill-opacity:1;stroke-width:0.00811784" />
    <path
       fill="currentColor"
       d="m 12.014688,28.111649 c -0.53515,-0.456045 -1.33103,-0.374016 -1.82223,0.13281 l -0.19238,0.198239 -0.1923799,-0.198239 c -0.49022,-0.506826 -1.28708,-0.588855 -1.82223,-0.13281 -0.61327,0.523428 -0.64549,1.462863 -0.0967,2.030235 l 1.88962,1.951134 c 0.12206,0.125974 0.3202999,0.125974 0.4423699,0 l 1.88961,-1.951134 c 0.5498,-0.567372 0.51757,-1.506807 -0.0957,-2.030235 z"
       id="path1067"
       style="fill:#99e2d0;fill-opacity:1;stroke-width:0.00976542" />
    <path
       fill="currentColor"
       d="m 31.749997,26 h -3.5 c -0.41406,0 -0.75,0.335938 -0.75,0.75 v 6.500001 c 0,0.414062 0.33594,0.75 0.75,0.75 h 3.5 c 0.41406,0 0.75,-0.335938 0.75,-0.75 V 26.75 c 0,-0.414062 -0.33594,-0.75 -0.75,-0.75 z m -1.75,7.500001 c -0.27656,0 -0.5,-0.223437 -0.5,-0.5 0,-0.276563 0.22344,-0.5 0.5,-0.5 0.27656,0 0.5,0.223437 0.5,0.5 0,0.276563 -0.22344,0.5 -0.5,0.5 z m 1.75,-1.6875 c 0,0.103125 -0.0844,0.1875 -0.1875,0.1875 h -3.125 c -0.10312,0 -0.1875,-0.08437 -0.1875,-0.1875 V 26.9375 c 0,-0.103125 0.0844,-0.1875 0.1875,-0.1875 h 3.125 c 0.10312,0 0.1875,0.08438 0.1875,0.1875 z"
       id="path1088"
       style="fill:#bfbfbf;fill-opacity:1;stroke-width:0.015625" />
    <path
       fill="currentColor"
       d="m 49.998786,7.105779 c 0.01,0.05649 0.193511,1.135818 0.193511,1.548078 0,0.628606 -0.334131,1.076922 -0.828121,1.257211 l 0.15505,2.861779 c 0.008,0.164664 -0.1226,0.304087 -0.28847,0.304087 h -0.76923 c -0.16466,0 -0.29687,-0.138221 -0.28846,-0.304087 l 0.15505,-2.861779 c -0.49519,-0.180289 -0.82812,-0.629807 -0.82812,-1.257211 0,-0.413462 0.18389,-1.491587 0.1935,-1.548078 0.0385,-0.24399 0.54448,-0.247596 0.57573,0.01322 v 1.697117 c 0.0156,0.04086 0.18149,0.03846 0.1923,0 0.0168,-0.304087 0.095,-1.673077 0.0962,-1.704327 0.0397,-0.250001 0.53726,-0.250001 0.57572,0 0.002,0.03245 0.0793,1.40024 0.0962,1.704327 0.0108,0.03846 0.17789,0.04086 0.19231,0 V 7.119 c 0.0312,-0.259615 0.538461,-0.257211 0.57692,-0.01322 z m 1.4327,3.433895 -0.18029,2.22476 c -0.0144,0.168269 0.11899,0.3125 0.28726,0.3125 h 0.67307 c 0.15986,0 0.28847,-0.128606 0.28847,-0.288462 V 7.211548 c 0,-0.158653 -0.12861,-0.28846 -0.28847,-0.28846 -0.99158,0 -2.66105,2.145433 -0.78004,3.616586 z"
       id="path995-9"
       style="fill:#99e2d0;fill-opacity:1;stroke-width:0.0120192" />
    <path
       fill="currentColor"
       d="M 72.386488,8.884585 71.859639,8.043578 C 71.812559,7.968078 71.72894,7.921809 71.639644,7.921809 h -3.279611 c -0.0893,0 -0.172911,0.04627 -0.219993,0.121769 l -0.526849,0.841007 c -0.271947,0.434305 -0.03085,1.038274 0.477329,1.107276 0.03653,0.0049 0.07387,0.0073 0.111215,0.0073 0.240289,0 0.452975,-0.105532 0.599099,-0.268701 0.146119,0.163169 0.359619,0.268701 0.599096,0.268701 0.240286,0 0.452974,-0.105532 0.599098,-0.268701 0.146122,0.163169 0.359619,0.268701 0.599097,0.268701 0.240289,0 0.452977,-0.105532 0.599096,-0.268701 0.146936,0.163169 0.359621,0.268701 0.599098,0.268701 0.03815,0 0.07468,-0.0024 0.111215,-0.0073 0.509802,-0.06819 0.751713,-0.672159 0.478954,-1.107276 z m -0.588544,1.375165 c -0.08118,0 -0.161547,-0.01218 -0.239477,-0.03085 v 0.810162 H 68.441212 V 10.2289 c -0.07793,0.01786 -0.158297,0.03085 -0.239477,0.03085 -0.04871,0 -0.09823,-0.0032 -0.146121,-0.0097 -0.04546,-0.0065 -0.09011,-0.01705 -0.133133,-0.02922 v 1.597592 c 0,0.143685 0.116086,0.259771 0.25977,0.259771 h 3.636799 c 0.143687,0 0.25977,-0.116086 0.25977,-0.259771 V 10.22083 c -0.04384,0.01299 -0.08767,0.02354 -0.133133,0.02922 -0.04952,0.0065 -0.09823,0.0097 -0.147743,0.0097 z"
       id="path1016-1"
       style="fill:#9356dc;fill-opacity:1;stroke-width:0.00811784" />
    <path
       fill="currentColor"
       d="m 52.014688,28.11165 c -0.53515,-0.456043 -1.331029,-0.374015 -1.822229,0.132811 l -0.192381,0.198239 -0.19238,-0.198239 c -0.49022,-0.506826 -1.28708,-0.588854 -1.82223,-0.132811 -0.61327,0.523428 -0.64549,1.462863 -0.0967,2.030236 l 1.88962,1.951135 c 0.12206,0.125973 0.320301,0.125973 0.44237,0 l 1.889611,-1.951135 c 0.5498,-0.567373 0.51757,-1.506808 -0.0957,-2.030236 z"
       id="path1067-0"
       style="fill:#bfbfbf;fill-opacity:1;stroke-width:0.00976543" />
    <path
       fill="currentColor"
       d="m 71.749999,26.000002 h -3.500001 c -0.41406,0 -0.750001,0.335938 -0.750001,0.749999 v 6.500003 c 0,0.41406 0.335941,0.749999 0.750001,0.749999 h 3.500001 c 0.414059,0 0.749998,-0.335939 0.749998,-0.749999 v -6.500003 c 0,-0.414061 -0.335939,-0.749999 -0.749998,-0.749999 z m -1.750002,7.500002 c -0.276559,0 -0.499999,-0.223438 -0.499999,-0.500002 0,-0.276561 0.22344,-0.499999 0.499999,-0.499999 0.276561,0 0.500001,0.223438 0.500001,0.499999 0,0.276564 -0.22344,0.500002 -0.500001,0.500002 z m 1.750002,-1.687502 c 0,0.103127 -0.0844,0.187502 -0.1875,0.187502 h -3.125002 c -0.103118,0 -0.187499,-0.08437 -0.187499,-0.187502 v -4.875001 c 0,-0.103124 0.0844,-0.1875 0.187499,-0.1875 h 3.125002 c 0.103119,0 0.1875,0.08438 0.1875,0.1875 z"
       id="path1088-5"
       style="fill:#ff79da;fill-opacity:1;stroke-width:0.015625" />
    <path
       fill="currentColor"
       d="m 9.9987861,47.105775 c 0.01,0.05649 0.1935109,1.135817 0.1935109,1.548077 0,0.628606 -0.3341309,1.076923 -0.8281209,1.257211 l 0.15505,2.861779 c 0.008,0.164664 -0.1226,0.304087 -0.288469,0.304087 h -0.76923 c -0.16466,0 -0.296871,-0.138221 -0.288461,-0.304087 l 0.15505,-2.861779 c -0.495189,-0.180288 -0.82812,-0.629807 -0.82812,-1.257211 0,-0.413462 0.18389,-1.491587 0.1935,-1.548077 0.0385,-0.24399 0.54448,-0.247596 0.57573,0.01322 v 1.697116 c 0.0156,0.04086 0.18149,0.03846 0.192301,0 0.0168,-0.304087 0.095,-1.673077 0.0962,-1.704327 0.0397,-0.25 0.53726,-0.25 0.57572,0 0.002,0.03245 0.0793,1.40024 0.0962,1.704327 0.0108,0.03846 0.17789,0.04086 0.19231,0 v -1.697116 c 0.0312,-0.259615 0.53846,-0.257211 0.57692,-0.01322 z m 1.4326999,3.433894 -0.18029,2.22476 c -0.0144,0.168269 0.11899,0.3125 0.28726,0.3125 h 0.67307 c 0.15986,0 0.28847,-0.128606 0.28847,-0.288462 v -5.576923 c 0,-0.158654 -0.12861,-0.288461 -0.28847,-0.288461 -0.99158,0 -2.6610499,2.145433 -0.78004,3.616586 z"
       id="path995-4"
       style="fill:#bfbfbf;fill-opacity:1;stroke-width:0.0120192" />
    <path
       fill="currentColor"
       d="m 32.386488,48.884581 -0.526849,-0.841008 c -0.04708,-0.0755 -0.130699,-0.121768 -0.219995,-0.121768 h -3.279611 c -0.0893,0 -0.172911,0.04627 -0.219993,0.121768 l -0.526849,0.841008 c -0.271947,0.434305 -0.03085,1.038273 0.477329,1.107275 0.03653,0.0049 0.07387,0.0073 0.111215,0.0073 0.240289,0 0.452975,-0.105532 0.599099,-0.268701 0.146119,0.163169 0.359619,0.268701 0.599096,0.268701 0.240286,0 0.452974,-0.105532 0.599098,-0.268701 0.146122,0.163169 0.359619,0.268701 0.599097,0.268701 0.240289,0 0.452977,-0.105532 0.599096,-0.268701 0.146936,0.163169 0.359621,0.268701 0.599098,0.268701 0.03815,0 0.07468,-0.0024 0.111215,-0.0073 0.509802,-0.06819 0.751713,-0.672158 0.478954,-1.107275 z m -0.588544,1.375164 c -0.08118,0 -0.161547,-0.01218 -0.239477,-0.03085 v 0.810162 h -3.117255 v -0.810162 c -0.07793,0.01786 -0.158297,0.03085 -0.239477,0.03085 -0.04871,0 -0.09823,-0.0032 -0.146121,-0.0097 -0.04546,-0.0065 -0.09011,-0.01705 -0.133133,-0.02922 v 1.597592 c 0,0.143685 0.116086,0.259771 0.25977,0.259771 h 3.636799 c 0.143687,0 0.25977,-0.116086 0.25977,-0.259771 v -1.597592 c -0.04384,0.01299 -0.08767,0.02354 -0.133133,0.02922 -0.04952,0.0065 -0.09823,0.0097 -0.147743,0.0097 z"
       id="path1016-5"
       style="fill:#99e2d0;fill-opacity:1;stroke-width:0.00811784" />
    <path
       fill="currentColor"
       d="m 12.014688,68.111645 c -0.53515,-0.456043 -1.331029,-0.374015 -1.822229,0.132811 l -0.192381,0.198239 -0.1923799,-0.198239 c -0.49022,-0.506826 -1.28708,-0.588854 -1.82223,-0.132811 -0.61327,0.523428 -0.64549,1.462863 -0.0967,2.030236 l 1.88962,1.951135 c 0.12206,0.125973 0.3203009,0.125973 0.4423699,0 l 1.889611,-1.951135 c 0.5498,-0.567373 0.51757,-1.506808 -0.0957,-2.030236 z"
       id="path1067-3"
       style="fill:#ff79da;fill-opacity:1;stroke-width:0.00976543" />
    <path
       fill="currentColor"
       d="m 31.749999,65.999997 h -3.500001 c -0.41406,0 -0.750001,0.335938 -0.750001,0.749999 v 6.500003 c 0,0.41406 0.335941,0.749996 0.750001,0.749996 h 3.500001 c 0.414059,0 0.749998,-0.335936 0.749998,-0.749996 v -6.500003 c 0,-0.414061 -0.335939,-0.749999 -0.749998,-0.749999 z m -1.750002,7.500002 c -0.276559,0 -0.499999,-0.223438 -0.499999,-0.500002 0,-0.276561 0.22344,-0.499999 0.499999,-0.499999 0.276561,0 0.500001,0.223438 0.500001,0.499999 0,0.276564 -0.22344,0.500002 -0.500001,0.500002 z m 1.750002,-1.687502 c 0,0.103127 -0.0844,0.187502 -0.1875,0.187502 h -3.125002 c -0.103118,0 -0.187499,-0.08437 -0.187499,-0.187502 v -4.875001 c 0,-0.103124 0.0844,-0.1875 0.187499,-0.1875 h 3.125002 c 0.103119,0 0.1875,0.08438 0.1875,0.1875 z"
       id="path1088-53"
       style="fill:#9356dc;fill-opacity:1;stroke-width:0.015625" />
    <path
       fill="currentColor"
       d="m 49.998789,47.105778 c 0.01,0.05649 0.19351,1.135817 0.19351,1.548077 0,0.628606 -0.33413,1.076923 -0.82812,1.257211 l 0.15505,2.861779 c 0.008,0.164664 -0.1226,0.304087 -0.28847,0.304087 h -0.76923 c -0.16466,0 -0.29687,-0.138221 -0.28846,-0.304087 l 0.15505,-2.861779 c -0.49519,-0.180288 -0.82812,-0.629807 -0.82812,-1.257211 0,-0.413462 0.18389,-1.491587 0.1935,-1.548077 0.0385,-0.24399 0.54448,-0.247596 0.57573,0.01322 v 1.697116 c 0.0156,0.04086 0.18149,0.03846 0.1923,0 0.0168,-0.304087 0.095,-1.673077 0.0962,-1.704327 0.0397,-0.25 0.53726,-0.25 0.57572,0 0.002,0.03245 0.0793,1.40024 0.0962,1.704327 0.0108,0.03846 0.17789,0.04086 0.19231,0 v -1.697116 c 0.0312,-0.259615 0.53846,-0.257211 0.57692,-0.01322 z m 1.432699,3.433894 -0.18029,2.22476 c -0.0144,0.168269 0.11899,0.3125 0.28726,0.3125 h 0.67307 c 0.15986,0 0.28847,-0.128606 0.28847,-0.288462 v -5.576923 c 0,-0.158654 -0.12861,-0.288461 -0.28847,-0.288461 -0.99158,0 -2.661049,2.145433 -0.78004,3.616586 z"
       id="path995-8"
       style="fill:#ff79da;fill-opacity:1;stroke-width:0.0120192" />
    <path
       fill="currentColor"
       d="m 72.38649,48.884584 -0.526849,-0.841008 c -0.04708,-0.0755 -0.130699,-0.121768 -0.219995,-0.121768 h -3.279611 c -0.0893,0 -0.172911,0.04627 -0.219993,0.121768 l -0.526849,0.841008 c -0.271947,0.434305 -0.03085,1.038273 0.477329,1.107275 0.03653,0.0049 0.07387,0.0073 0.111215,0.0073 0.240289,0 0.452975,-0.105532 0.599099,-0.268701 0.146119,0.163169 0.359619,0.268701 0.599096,0.268701 0.240286,0 0.452974,-0.105532 0.599098,-0.268701 0.146122,0.163169 0.359619,0.268701 0.599097,0.268701 0.240289,0 0.452977,-0.105532 0.599096,-0.268701 0.146936,0.163169 0.359621,0.268701 0.599098,0.268701 0.03815,0 0.07468,-0.0024 0.111215,-0.0073 0.509802,-0.06819 0.751713,-0.672158 0.478954,-1.107275 z m -0.588544,1.375164 c -0.08118,0 -0.161547,-0.01218 -0.239477,-0.03085 v 0.810162 h -3.117255 v -0.810162 c -0.07793,0.01786 -0.158297,0.03085 -0.239477,0.03085 -0.04871,0 -0.09823,-0.0032 -0.146121,-0.0097 -0.04546,-0.0065 -0.09011,-0.01705 -0.133133,-0.02922 v 1.597592 c 0,0.143685 0.116086,0.259771 0.25977,0.259771 h 3.636799 c 0.143687,0 0.25977,-0.116086 0.25977,-0.259771 v -1.597592 c -0.04384,0.01299 -0.08767,0.02354 -0.133133,0.02922 -0.04952,0.0065 -0.09823,0.0097 -0.147743,0.0097 z"
       id="path1016-10"
       style="fill:#bfbfbf;fill-opacity:1;stroke-width:0.00811784" />
    <path
       fill="currentColor"
       d="m 52.01469,68.111648 c -0.53515,-0.456043 -1.331029,-0.374015 -1.822229,0.132811 l -0.192381,0.198239 -0.192379,-0.198239 c -0.49022,-0.506826 -1.28708,-0.588854 -1.82223,-0.132811 -0.61327,0.523428 -0.64549,1.462863 -0.0967,2.030236 l 1.88962,1.951135 c 0.12206,0.125973 0.3203,0.125973 0.442369,0 l 1.889611,-1.951135 c 0.5498,-0.567373 0.51757,-1.506808 -0.0957,-2.030236 z"
       id="path1067-7"
       style="fill:#9356dc;fill-opacity:1;stroke-width:0.00976543" />
    <path
       fill="currentColor"
       d="M 71.750001,66 H 68.25 c -0.41406,0 -0.750001,0.335938 -0.750001,0.749999 V 73.25 c 0,0.41406 0.335941,0.75 0.750001,0.75 h 3.500001 c 0.414059,0 0.749998,-0.33594 0.749998,-0.75 V 66.749999 C 72.499999,66.335938 72.16406,66 71.750001,66 Z m -1.750002,7.5 C 69.72344,73.5 69.5,73.27656 69.5,73 c 0,-0.276561 0.22344,-0.499999 0.499999,-0.499999 C 70.27656,72.500001 70.5,72.723439 70.5,73 c 0,0.27656 -0.22344,0.5 -0.500001,0.5 z m 1.750002,-1.6875 c 0,0.103127 -0.0844,0.187502 -0.1875,0.187502 H 68.437499 C 68.334381,72.000002 68.25,71.915632 68.25,71.8125 v -4.875001 c 0,-0.103124 0.0844,-0.1875 0.187499,-0.1875 h 3.125002 c 0.103119,0 0.1875,0.08438 0.1875,0.1875 z"
       id="path1088-3"
       style="fill:#99e2d0;fill-opacity:1;stroke-width:0.015625" />
  </g>
</svg>
