<?xml version="1.0" encoding="UTF-8" standalone="no"?>
<svg
   xmlns:dc="http://purl.org/dc/elements/1.1/"
   xmlns:cc="http://creativecommons.org/ns#"
   xmlns:rdf="http://www.w3.org/1999/02/22-rdf-syntax-ns#"
   xmlns:svg="http://www.w3.org/2000/svg"
   xmlns="http://www.w3.org/2000/svg"
   xmlns:sodipodi="http://sodipodi.sourceforge.net/DTD/sodipodi-0.dtd"
   xmlns:inkscape="http://www.inkscape.org/namespaces/inkscape"
   width="160mm"
   height="160mm"
   viewBox="0 0 160 160"
   version="1.1"
   id="svg8"
   inkscape:version="1.0.1 (3bc2e813f5, 2020-09-07)"
   sodipodi:docname="background4.svg">
  <style
     id="style833"></style>
  <defs
     id="defs2" />
  <sodipodi:namedview
     id="base"
     pagecolor="#ffffff"
     bordercolor="#666666"
     borderopacity="1.0"
     inkscape:pageopacity="0.0"
     inkscape:pageshadow="2"
     inkscape:zoom="1.4142136"
     inkscape:cx="222.05398"
     inkscape:cy="325.52458"
     inkscape:document-units="mm"
     inkscape:current-layer="layer1"
     inkscape:document-rotation="0"
     showgrid="false"
     inkscape:window-width="1920"
     inkscape:window-height="1017"
     inkscape:window-x="-8"
     inkscape:window-y="1072"
     inkscape:window-maximized="1" />
  <metadata
     id="metadata5">
    <rdf:RDF>
      <cc:Work
         rdf:about="">
        <dc:format>image/svg+xml</dc:format>
        <dc:type
           rdf:resource="http://purl.org/dc/dcmitype/StillImage" />
        <dc:title></dc:title>
      </cc:Work>
    </rdf:RDF>
  </metadata>
  <g
     inkscape:label="Calque 1"
     inkscape:groupmode="layer"
     id="layer1">
    <path
       fill="currentColor"
       d="m 19.998785,16.18271 c 0.01,0.05649 0.19351,1.135817 0.19351,1.548077 0,0.628606 -0.33413,1.076923 -0.82812,1.257211 l 0.15505,2.861779 c 0.008,0.164664 -0.1226,0.304087 -0.28847,0.304087 h -0.76923 c -0.16466,0 -0.29687,-0.138221 -0.28846,-0.304087 l 0.15505,-2.861779 c -0.49519,-0.180288 -0.82812,-0.629807 -0.82812,-1.257211 0,-0.413462 0.18389,-1.491587 0.1935,-1.548077 0.0385,-0.24399 0.54448,-0.247596 0.57573,0.01322 v 1.697116 c 0.0156,0.04086 0.18149,0.03846 0.1923,0 0.0168,-0.304087 0.095,-1.673077 0.0962,-1.704327 0.0397,-0.25 0.53726,-0.25 0.57572,0 0.002,0.03245 0.0793,1.40024 0.0962,1.704327 0.0108,0.03846 0.17789,0.04086 0.19231,0 V 16.19593 c 0.0312,-0.259615 0.53846,-0.257211 0.57692,-0.01322 z m 1.4327,3.433894 -0.18029,2.22476 c -0.0144,0.168269 0.11899,0.3125 0.28726,0.3125 h 0.67307 c 0.15986,0 0.28847,-0.128606 0.28847,-0.288462 v -5.576923 c 0,-0.158654 -0.12861,-0.288461 -0.28847,-0.288461 -0.99158,0 -2.66105,2.145433 -0.78004,3.616586 z"
       id="path995"
       style="fill:#070707;fill-opacity:0.5;stroke-width:0.0120192" />
    <path
       fill="currentColor"
       d="m 62.386487,17.961516 -0.526849,-0.841008 c -0.04708,-0.0755 -0.130697,-0.121768 -0.219994,-0.121768 h -3.279612 c -0.0893,0 -0.17291,0.04627 -0.219994,0.121768 l -0.526848,0.841008 c -0.271948,0.434305 -0.03085,1.038273 0.47733,1.107275 0.03653,0.0049 0.07387,0.0073 0.111214,0.0073 0.240289,0 0.452976,-0.105532 0.599098,-0.268701 0.146121,0.163169 0.35962,0.268701 0.599097,0.268701 0.240288,0 0.452976,-0.105532 0.599098,-0.268701 0.146121,0.163169 0.35962,0.268701 0.599097,0.268701 0.240288,0 0.452976,-0.105532 0.599097,-0.268701 0.146934,0.163169 0.359621,0.268701 0.599098,0.268701 0.03815,0 0.07468,-0.0024 0.111214,-0.0073 0.509801,-0.06819 0.751713,-0.672158 0.478954,-1.107275 z m -0.588545,1.375164 c -0.08118,0 -0.161545,-0.01218 -0.239476,-0.03085 v 0.810162 H 58.441211 V 19.30583 c -0.07793,0.01786 -0.158298,0.03085 -0.239477,0.03085 -0.04871,0 -0.09823,-0.0032 -0.146121,-0.0097 -0.04546,-0.0065 -0.09011,-0.01705 -0.133133,-0.02922 v 1.597592 c 0,0.143686 0.116085,0.259772 0.259771,0.259772 h 3.636798 c 0.143686,0 0.259771,-0.116086 0.259771,-0.259772 V 19.29776 c -0.04384,0.01299 -0.08767,0.02354 -0.133133,0.02922 -0.04952,0.0065 -0.09823,0.0097 -0.147745,0.0097 z"
       id="path1016"
       style="fill:#626262;fill-opacity:0.5;stroke-width:0.00811785" />
    <path
       fill="currentColor"
       d="m 22.014688,57.188582 c -0.53515,-0.456045 -1.33103,-0.374016 -1.82223,0.13281 l -0.19238,0.198239 -0.19238,-0.198239 c -0.49022,-0.506826 -1.28708,-0.588855 -1.82223,-0.13281 -0.61327,0.523428 -0.64549,1.462863 -0.0967,2.030235 l 1.88962,1.951134 c 0.12206,0.125974 0.3203,0.125974 0.44237,0 l 1.88961,-1.951134 c 0.5498,-0.567372 0.51757,-1.506807 -0.0957,-2.030235 z"
       id="path1067"
       style="fill:#7f7f7f;fill-opacity:0.5;stroke-width:0.0097654" />
    <path
       fill="currentColor"
       d="m 61.749997,55.076932 h -3.5 c -0.41406,0 -0.75,0.335938 -0.75,0.75 v 6.500001 c 0,0.414062 0.33594,0.75 0.75,0.75 h 3.5 c 0.41406,0 0.75,-0.335938 0.75,-0.75 v -6.500001 c 0,-0.414062 -0.33594,-0.75 -0.75,-0.75 z m -1.75,7.500001 c -0.27656,0 -0.5,-0.223437 -0.5,-0.5 0,-0.276563 0.22344,-0.5 0.5,-0.5 0.27656,0 0.5,0.223437 0.5,0.5 0,0.276563 -0.22344,0.5 -0.5,0.5 z m 1.75,-1.6875 c 0,0.103125 -0.0844,0.1875 -0.1875,0.1875 h -3.125 c -0.10312,0 -0.1875,-0.08437 -0.1875,-0.1875 v -4.875001 c 0,-0.103125 0.0844,-0.1875 0.1875,-0.1875 h 3.125 c 0.10312,0 0.1875,0.08438 0.1875,0.1875 z"
       id="path1088"
       style="fill:#bfbfbf;fill-opacity:0.5;stroke-width:0.015625" />
    <path
       fill="currentColor"
       d="m 99.998786,16.182713 c 0.01,0.05649 0.193514,1.135818 0.193514,1.548078 0,0.628606 -0.334134,1.076922 -0.828124,1.257211 l 0.15505,2.861779 c 0.008,0.164664 -0.1226,0.304087 -0.28847,0.304087 h -0.76923 c -0.16466,0 -0.29687,-0.138221 -0.28846,-0.304087 l 0.15505,-2.861779 c -0.49519,-0.180289 -0.82812,-0.629807 -0.82812,-1.257211 0,-0.413462 0.18389,-1.491587 0.1935,-1.548078 0.0385,-0.24399 0.54448,-0.247596 0.57573,0.01322 v 1.697117 c 0.0156,0.04086 0.18149,0.03846 0.1923,0 0.0168,-0.304087 0.095,-1.673077 0.0962,-1.704327 0.0397,-0.250001 0.53726,-0.250001 0.57572,0 0.002,0.03245 0.0793,1.40024 0.0962,1.704327 0.0108,0.03846 0.17789,0.04086 0.19231,0 v -1.697116 c 0.0312,-0.259615 0.538461,-0.257211 0.57692,-0.01322 z m 1.432704,3.433895 -0.18029,2.22476 c -0.0144,0.168269 0.11899,0.3125 0.28726,0.3125 h 0.67307 c 0.15986,0 0.28847,-0.128606 0.28847,-0.288462 v -5.576924 c 0,-0.158653 -0.12861,-0.28846 -0.28847,-0.28846 -0.99158,0 -2.661054,2.145433 -0.78004,3.616586 z"
       id="path995-9"
       style="fill:#7f7f7f;fill-opacity:0.5;stroke-width:0.0120192" />
    <path
       fill="currentColor"
       d="m 142.38648,17.961518 -0.52685,-0.841007 c -0.0471,-0.0755 -0.1307,-0.121769 -0.22,-0.121769 h -3.27961 c -0.0893,0 -0.17291,0.04627 -0.21999,0.121769 l -0.52685,0.841007 c -0.27195,0.434305 -0.0309,1.038274 0.47733,1.107276 0.0366,0.0049 0.0739,0.0073 0.11121,0.0073 0.24029,0 0.45298,-0.105532 0.5991,-0.268701 0.14612,0.163169 0.35962,0.268701 0.5991,0.268701 0.24029,0 0.45297,-0.105532 0.5991,-0.268701 0.14612,0.163169 0.35962,0.268701 0.59909,0.268701 0.24029,0 0.45298,-0.105532 0.5991,-0.268701 0.14694,0.163169 0.35962,0.268701 0.5991,0.268701 0.0382,0 0.0747,-0.0024 0.11121,-0.0073 0.5098,-0.06819 0.75172,-0.672159 0.47896,-1.107276 z m -0.58855,1.375165 c -0.0812,0 -0.16154,-0.01218 -0.23947,-0.03085 v 0.810162 h -3.11726 v -0.810162 c -0.0779,0.01786 -0.1583,0.03085 -0.23948,0.03085 -0.0487,0 -0.0982,-0.0032 -0.14612,-0.0097 -0.0455,-0.0065 -0.0901,-0.01705 -0.13313,-0.02922 v 1.597592 c 0,0.143685 0.11609,0.259771 0.25977,0.259771 h 3.6368 c 0.14369,0 0.25977,-0.116086 0.25977,-0.259771 v -1.597592 c -0.0438,0.01299 -0.0877,0.02354 -0.13313,0.02922 -0.0495,0.0065 -0.0982,0.0097 -0.14775,0.0097 z"
       id="path1016-1"
       style="fill:#070707;fill-opacity:0.5;stroke-width:0.00811785" />
    <path
       fill="currentColor"
       d="m 102.01469,57.188585 c -0.53515,-0.456043 -1.33103,-0.374015 -1.82223,0.132811 l -0.19238,0.198239 -0.192382,-0.198239 c -0.49022,-0.506826 -1.28708,-0.588854 -1.82223,-0.132811 -0.61327,0.523428 -0.64549,1.462863 -0.0967,2.030236 l 1.88962,1.951135 c 0.12206,0.125973 0.320302,0.125973 0.442372,0 l 1.88961,-1.951135 c 0.5498,-0.567373 0.51757,-1.506808 -0.0957,-2.030236 z"
       id="path1067-0"
       style="fill:#bfbfbf;fill-opacity:0.5;stroke-width:0.00976545" />
    <path
       fill="currentColor"
       d="m 141.75,55.076937 h -3.5 c -0.41406,0 -0.75,0.335937 -0.75,0.749998 v 6.500003 c 0,0.41406 0.33594,0.749999 0.75,0.749999 h 3.5 c 0.41406,0 0.75,-0.335939 0.75,-0.749999 v -6.500003 c 0,-0.414061 -0.33594,-0.749998 -0.75,-0.749998 z M 140,62.576938 c -0.27656,0 -0.5,-0.223438 -0.5,-0.500002 0,-0.276561 0.22344,-0.499999 0.5,-0.499999 0.27656,0 0.5,0.223438 0.5,0.499999 0,0.276564 -0.22344,0.500002 -0.5,0.500002 z m 1.75,-1.687501 c 0,0.103127 -0.0844,0.187501 -0.1875,0.187501 h -3.125 c -0.10312,0 -0.1875,-0.08437 -0.1875,-0.187501 v -4.875002 c 0,-0.103124 0.0844,-0.1875 0.1875,-0.1875 h 3.125 c 0.10312,0 0.1875,0.08438 0.1875,0.1875 z"
       id="path1088-5"
       style="fill:#626262;fill-opacity:0.5;stroke-width:0.015625" />
    <path
       fill="currentColor"
       d="m 19.998785,96.182704 c 0.01,0.05649 0.193511,1.135817 0.193511,1.548077 0,0.628606 -0.334131,1.076923 -0.828121,1.257211 l 0.15505,2.861778 c 0.008,0.16466 -0.1226,0.30409 -0.288469,0.30409 h -0.76923 c -0.16466,0 -0.296871,-0.13822 -0.288461,-0.30409 l 0.15505,-2.861778 c -0.495189,-0.180288 -0.82812,-0.629807 -0.82812,-1.257211 0,-0.413462 0.18389,-1.491587 0.1935,-1.548077 0.0385,-0.24399 0.54448,-0.247596 0.57573,0.01322 v 1.697116 c 0.0156,0.04086 0.18149,0.03846 0.192301,0 0.0168,-0.304087 0.095,-1.673077 0.0962,-1.704327 0.0397,-0.25 0.53726,-0.25 0.57572,0 0.002,0.03245 0.0793,1.40024 0.0962,1.704327 0.0108,0.03846 0.17789,0.04086 0.19231,0 v -1.697116 c 0.0312,-0.259615 0.53846,-0.257211 0.57692,-0.01322 z m 1.4327,3.433894 -0.18029,2.224762 c -0.0144,0.16827 0.11899,0.3125 0.28726,0.3125 h 0.67307 c 0.15986,0 0.28847,-0.12861 0.28847,-0.28847 v -5.576917 c 0,-0.158654 -0.12861,-0.288461 -0.28847,-0.288461 -0.99158,0 -2.66105,2.145433 -0.78004,3.616586 z"
       id="path995-4"
       style="fill:#bfbfbf;fill-opacity:0.5;stroke-width:0.0120192" />
    <path
       fill="currentColor"
       d="M 62.386489,97.96151 61.85964,97.120502 c -0.04708,-0.0755 -0.130699,-0.121768 -0.219995,-0.121768 h -3.279611 c -0.0893,0 -0.172911,0.04627 -0.219993,0.121768 l -0.526849,0.841008 c -0.271947,0.434305 -0.03085,1.038273 0.477329,1.107275 0.03653,0.0049 0.07387,0.0073 0.111215,0.0073 0.240289,0 0.452975,-0.105532 0.599099,-0.268701 0.146119,0.163169 0.359619,0.268701 0.599096,0.268701 0.240286,0 0.452974,-0.105532 0.599098,-0.268701 0.146122,0.163169 0.359619,0.268701 0.599097,0.268701 0.240289,0 0.452977,-0.105532 0.599096,-0.268701 0.146936,0.163169 0.359621,0.268701 0.599098,0.268701 0.03815,0 0.07468,-0.0024 0.111215,-0.0073 0.509802,-0.06819 0.751713,-0.672158 0.478954,-1.107275 z m -0.588544,1.375164 c -0.08118,0 -0.161547,-0.01218 -0.239477,-0.03085 v 0.810156 h -3.117255 v -0.810156 c -0.07793,0.01786 -0.158297,0.03085 -0.239477,0.03085 -0.04871,0 -0.09823,-0.0032 -0.146121,-0.0097 -0.04546,-0.0065 -0.09011,-0.01705 -0.133133,-0.02922 v 1.597586 c 0,0.14369 0.116086,0.25978 0.25977,0.25978 h 3.636799 c 0.143687,0 0.25977,-0.11609 0.25977,-0.25978 v -1.597586 c -0.04384,0.01299 -0.08767,0.02354 -0.133133,0.02922 -0.04952,0.0065 -0.09823,0.0097 -0.147743,0.0097 z"
       id="path1016-5"
       style="fill:#7f7f7f;fill-opacity:0.5;stroke-width:0.00811785" />
    <path
       fill="currentColor"
       d="m 22.014688,137.18857 c -0.53515,-0.45605 -1.331029,-0.37402 -1.822229,0.13281 l -0.192381,0.19824 -0.19238,-0.19824 c -0.49022,-0.50683 -1.28708,-0.58886 -1.82223,-0.13281 -0.61327,0.52343 -0.64549,1.46286 -0.0967,2.03023 l 1.88962,1.95114 c 0.12206,0.12597 0.320301,0.12597 0.44237,0 l 1.889611,-1.95114 c 0.5498,-0.56737 0.51757,-1.5068 -0.0957,-2.03023 z"
       id="path1067-3"
       style="fill:#626262;fill-opacity:0.5;stroke-width:0.00976545" />
    <path
       fill="currentColor"
       d="m 61.749999,135.07692 h -3.500001 c -0.41406,0 -0.750001,0.33594 -0.750001,0.75 v 6.5 c 0,0.41406 0.335941,0.75 0.750001,0.75 h 3.500001 c 0.414059,0 0.749998,-0.33594 0.749998,-0.75 v -6.5 c 0,-0.41406 -0.335939,-0.75 -0.749998,-0.75 z m -1.750002,7.5 c -0.276559,0 -0.499999,-0.22344 -0.499999,-0.5 0,-0.27656 0.22344,-0.5 0.499999,-0.5 0.276561,0 0.500001,0.22344 0.500001,0.5 0,0.27656 -0.22344,0.5 -0.500001,0.5 z m 1.750002,-1.6875 c 0,0.10312 -0.0844,0.1875 -0.1875,0.1875 h -3.125002 c -0.103118,0 -0.187499,-0.0844 -0.187499,-0.1875 v -4.875 c 0,-0.10313 0.0844,-0.1875 0.187499,-0.1875 h 3.125002 c 0.103119,0 0.1875,0.0844 0.1875,0.1875 z"
       id="path1088-53"
       style="fill:#070707;fill-opacity:0.5;stroke-width:0.015625" />
    <path
       fill="currentColor"
       d="m 99.998791,96.182709 c 0.01,0.05649 0.193509,1.135817 0.193509,1.548077 0,0.628606 -0.334129,1.076923 -0.828119,1.257211 l 0.15505,2.861773 c 0.008,0.16467 -0.1226,0.30409 -0.28847,0.30409 h -0.76923 c -0.16466,0 -0.29687,-0.13822 -0.28846,-0.30409 l 0.15505,-2.861773 c -0.49519,-0.180288 -0.82812,-0.629807 -0.82812,-1.257211 0,-0.413462 0.18389,-1.491587 0.1935,-1.548077 0.0385,-0.24399 0.54448,-0.247596 0.57573,0.01322 v 1.697116 c 0.0156,0.04086 0.18149,0.03846 0.1923,0 0.0168,-0.304087 0.095,-1.673077 0.0962,-1.704327 0.0397,-0.25 0.53726,-0.25 0.57572,0 0.002,0.03245 0.0793,1.40024 0.0962,1.704327 0.0108,0.03846 0.17789,0.04086 0.19231,0 v -1.697116 c 0.0312,-0.259615 0.53846,-0.257211 0.57692,-0.01322 z m 1.432699,3.433891 -0.18029,2.22476 c -0.0144,0.16827 0.11899,0.3125 0.28726,0.3125 h 0.67307 c 0.15986,0 0.28847,-0.12861 0.28847,-0.28846 v -5.576922 c 0,-0.158654 -0.12861,-0.288461 -0.28847,-0.288461 -0.99158,0 -2.661049,2.145433 -0.78004,3.616583 z"
       id="path995-8"
       style="fill:#626262;fill-opacity:0.5;stroke-width:0.0120192" />
    <path
       fill="currentColor"
       d="m 142.38649,97.961514 -0.52685,-0.841007 c -0.0471,-0.0755 -0.1307,-0.121768 -0.22,-0.121768 h -3.27961 c -0.0893,0 -0.17291,0.04627 -0.21999,0.121768 l -0.52685,0.841007 c -0.27194,0.434306 -0.0309,1.038273 0.47733,1.107276 0.0366,0.0049 0.0739,0.0073 0.11122,0.0073 0.24029,0 0.45297,-0.105531 0.5991,-0.2687 0.14611,0.163169 0.35961,0.2687 0.59909,0.2687 0.24029,0 0.45298,-0.105531 0.5991,-0.2687 0.14612,0.163169 0.35962,0.2687 0.5991,0.2687 0.24028,0 0.45297,-0.105531 0.59909,-0.2687 0.14694,0.163169 0.35962,0.2687 0.5991,0.2687 0.0382,0 0.0747,-0.0024 0.11121,-0.0073 0.50981,-0.06819 0.75172,-0.672159 0.47896,-1.107276 z m -0.58855,1.375165 c -0.0812,0 -0.16154,-0.01218 -0.23947,-0.03085 v 0.810161 h -3.11726 v -0.810161 c -0.0779,0.01786 -0.15829,0.03085 -0.23947,0.03085 -0.0487,0 -0.0982,-0.0032 -0.14612,-0.0097 -0.0455,-0.0065 -0.0901,-0.01705 -0.13314,-0.02922 v 1.597591 c 0,0.14368 0.11609,0.25977 0.25977,0.25977 h 3.6368 c 0.14369,0 0.25977,-0.11609 0.25977,-0.25977 v -1.597591 c -0.0438,0.01299 -0.0877,0.02354 -0.13313,0.02922 -0.0495,0.0065 -0.0982,0.0097 -0.14775,0.0097 z"
       id="path1016-10"
       style="fill:#bfbfbf;fill-opacity:0.5;stroke-width:0.00811785" />
    <path
       fill="currentColor"
       d="m 102.01469,137.18857 c -0.53515,-0.45604 -1.33102,-0.37402 -1.82222,0.13281 l -0.19239,0.19824 -0.192375,-0.19824 c -0.49022,-0.50683 -1.28708,-0.58885 -1.82223,-0.13281 -0.61327,0.52343 -0.64549,1.46286 -0.0967,2.03024 l 1.88962,1.95113 c 0.12206,0.12597 0.320305,0.12597 0.442365,0 l 1.88962,-1.95113 c 0.5498,-0.56738 0.51757,-1.50681 -0.0957,-2.03024 z"
       id="path1067-7"
       style="fill:#070707;fill-opacity:0.5;stroke-width:0.00976545" />
    <path
       fill="currentColor"
       d="m 141.75,135.07692 h -3.5 c -0.41406,0 -0.75,0.33594 -0.75,0.75 v 6.5 c 0,0.41406 0.33594,0.75 0.75,0.75 h 3.5 c 0.41406,0 0.75,-0.33594 0.75,-0.75 v -6.5 c 0,-0.41406 -0.33594,-0.75 -0.75,-0.75 z m -1.75,7.5 c -0.27656,0 -0.5,-0.22344 -0.5,-0.5 0,-0.27656 0.22344,-0.5 0.5,-0.5 0.27656,0 0.5,0.22344 0.5,0.5 0,0.27656 -0.22344,0.5 -0.5,0.5 z m 1.75,-1.6875 c 0,0.10313 -0.0844,0.1875 -0.1875,0.1875 h -3.125 c -0.10312,0 -0.1875,-0.0844 -0.1875,-0.1875 v -4.875 c 0,-0.10312 0.0844,-0.1875 0.1875,-0.1875 h 3.125 c 0.10312,0 0.1875,0.0844 0.1875,0.1875 z"
       id="path1088-3"
       style="fill:#7f7f7f;fill-opacity:0.5;stroke-width:0.015625" />
  </g>
</svg>
