<?xml version="1.0" encoding="UTF-8" standalone="no"?>
<svg
   xmlns:dc="http://purl.org/dc/elements/1.1/"
   xmlns:cc="http://creativecommons.org/ns#"
   xmlns:rdf="http://www.w3.org/1999/02/22-rdf-syntax-ns#"
   xmlns:svg="http://www.w3.org/2000/svg"
   xmlns="http://www.w3.org/2000/svg"
   xmlns:sodipodi="http://sodipodi.sourceforge.net/DTD/sodipodi-0.dtd"
   xmlns:inkscape="http://www.inkscape.org/namespaces/inkscape"
   width="16"
   height="16"
   viewBox="0 0 4.2333332 4.2333335"
   version="1.1"
   id="svg8"
   inkscape:version="1.0.1 (3bc2e813f5, 2020-09-07)"
   sodipodi:docname="icon.svg">
  <style
     id="style833"></style>
  <defs
     id="defs2" />
  <sodipodi:namedview
     id="base"
     pagecolor="#ffffff"
     bordercolor="#666666"
     borderopacity="1.0"
     inkscape:pageopacity="0.0"
     inkscape:pageshadow="2"
     inkscape:zoom="44.8"
     inkscape:cx="9.7047716"
     inkscape:cy="7.134678"
     inkscape:document-units="mm"
     inkscape:current-layer="layer1"
     inkscape:document-rotation="0"
     showgrid="false"
     units="px"
     inkscape:window-width="1438"
     inkscape:window-height="1040"
     inkscape:window-x="130"
     inkscape:window-y="1080"
     inkscape:window-maximized="0" />
  <metadata
     id="metadata5">
    <rdf:RDF>
      <cc:Work
         rdf:about="">
        <dc:format>image/svg+xml</dc:format>
        <dc:type
           rdf:resource="http://purl.org/dc/dcmitype/StillImage" />
        <dc:title></dc:title>
      </cc:Work>
    </rdf:RDF>
  </metadata>
  <g
     inkscape:label="Calque 1"
     inkscape:groupmode="layer"
     id="layer1">
    <path
       d="m 0.90393839,0.0488826 q 0.31558121,0 0.46409001,0.12762475 0.1508293,0.12762476 0.1508293,0.33414481 0,0.0696135 -0.018564,0.15547016 -0.044089,0.1902769 -0.164752,0.33414478 -0.1206634,0.1415475 -0.2970176,0.2204428 -0.17403376,0.076575 -0.37823336,0.076575 -0.32254256,0 -0.47801272,-0.1276247 -0.1531497,-0.1299452 -0.1531497,-0.34342663 0,-0.0719339 0.0185636,-0.16011105 Q 0.09178087,0.48512721 0.21476472,0.34590021 0.34006903,0.20435275 0.51874368,0.1277779 0.69973879,0.0488826 0.90393839,0.0488826 Z m -0.006961,0.20652006 q -0.0487294,0 -0.10442025,0.0881771 -0.0533704,0.0858566 -0.12762475,0.32718346 -0.0742544,0.2413268 -0.0742544,0.33878568 0,0.05105 0.0162431,0.069613 0.0162431,0.016243 0.0440886,0.016243 0.0487295,0.00464 0.0997794,-0.083536 0.0533704,-0.0881771 0.13226565,-0.34342663 0.071934,-0.22508366 0.071934,-0.32718346 0,-0.0487295 -0.0162431,-0.067293 -0.0139227,-0.0185636 -0.0417683,-0.0185631 z"
       style="font-style:normal;font-variant:normal;font-weight:normal;font-stretch:normal;font-size:2.32045px;line-height:1.25;font-family:Shrikhand;-inkscape-font-specification:Shrikhand;fill:#9356dc;fill-opacity:1;stroke:none;stroke-width:0.0580115"
       id="path839" />
    <path
       d="m 3.18477,2.1635271 q -0.00464,0.00928 -0.00464,0.027845 0,0.016243 0.00696,0.025525 0.00928,0.00928 0.023205,0.00928 0.027845,0 0.046409,-0.023204 0.020884,-0.025525 0.027845,-0.025525 0.011602,0 0.018564,0.016243 0.00696,0.013923 0.00696,0.034807 0.00232,0.067293 -0.044088,0.1322656 -0.046409,0.062652 -0.1369066,0.1044203 -0.088177,0.039448 -0.2134814,0.039448 -0.1531497,0 -0.2436472,-0.069613 -0.090498,-0.071934 -0.092818,-0.1902769 0,-0.085857 0.041768,-0.1925973 l 0.1276256,-0.334144 q 0.011602,-0.030166 0.011602,-0.04873 0,-0.030166 -0.020884,-0.046409 -0.018564,-0.018564 -0.046409,-0.018564 -0.039448,0 -0.081216,0.034807 -0.041768,0.034807 -0.074254,0.1090612 L 2.4097397,2.1635271 q -0.00464,0.00928 -0.00464,0.027845 0,0.016243 0.00696,0.025525 0.00928,0.00928 0.023205,0.00928 0.027845,0 0.046409,-0.023204 0.020884,-0.025525 0.027845,-0.025525 0.011602,0 0.018564,0.016243 0.00696,0.013923 0.00696,0.034807 0.00232,0.067293 -0.044088,0.1322656 -0.046409,0.062652 -0.1369066,0.1044203 -0.088177,0.039448 -0.2134814,0.039448 -0.1531497,0 -0.2436473,-0.069613 -0.090498,-0.071934 -0.092818,-0.1902769 0,-0.085857 0.041768,-0.1925973 l 0.1276257,-0.334144 q 0.011602,-0.030166 0.011602,-0.04873 0,-0.030166 -0.020884,-0.046409 -0.018564,-0.018564 -0.046409,-0.018564 -0.039448,0 -0.081216,0.034807 -0.041768,0.032486 -0.069613,0.1067407 L 1.6138253,2.2424224 q -0.00928,0.025525 -0.00928,0.048729 0,0.027845 0.011602,0.046409 0.011602,0.016243 0.032486,0.034807 0.016243,0.013923 0.023205,0.025525 0.00696,0.011602 0.00232,0.027845 -0.00928,0.030166 -0.044088,0.044089 -0.034807,0.013923 -0.1090612,0.013923 H 0.9919446 q -0.060332,0 -0.085857,-0.018564 -0.027845,-0.020884 -0.020884,-0.05337 0.00928,-0.027845 0.04873,-0.048729 0.034807,-0.018564 0.058011,-0.044089 0.023205,-0.025525 0.039448,-0.081216 l 0.2065201,-0.67061 q 0.00464,-0.011602 0.00464,-0.032486 0,-0.025525 -0.011602,-0.039448 -0.00928,-0.013923 -0.032486,-0.034807 -0.023205,-0.018564 -0.032486,-0.032486 -0.00928,-0.013923 -0.00232,-0.037127 0.013923,-0.05337 0.1461884,-0.092818 0.1322656,-0.041768 0.2761335,-0.041768 0.1137021,0 0.1786747,0.062652 0.067293,0.062652 0.064973,0.1717133 0.095137,-0.1322656 0.1995576,-0.1833155 0.1067407,-0.05105 0.2297246,-0.05105 0.1345861,0 0.2181223,0.078895 0.085857,0.076575 0.095138,0.2018792 0.09978,-0.1577906 0.2134818,-0.2181223 0.1137021,-0.062652 0.2482882,-0.062652 0.1415474,0 0.2274041,0.085857 0.088177,0.085857 0.088177,0.2227632 0,0.071934 -0.023205,0.1415475 z"
       style="font-style:normal;font-variant:normal;font-weight:normal;font-stretch:normal;font-size:2.32045px;line-height:1.25;font-family:Shrikhand;-inkscape-font-specification:Shrikhand;fill:#ff79da;fill-opacity:1;stroke:none;stroke-width:0.0580115"
       id="path841" />
    <path
       d="m 3.703994,2.4681442 q 0.2482882,0 0.3712721,0.076575 0.1253043,0.074254 0.1253043,0.1833156 0,0.088177 -0.074254,0.1369065 -0.071934,0.046409 -0.190277,0.046409 -0.1090611,0 -0.1693928,-0.05337 -0.060332,-0.05337 -0.060332,-0.1322657 0,-0.048729 0.030166,-0.1020998 -0.069613,0 -0.1160225,0.034807 -0.046409,0.032486 -0.071934,0.1137021 -0.013923,0.05105 -0.013923,0.095138 0,0.055691 0.018564,0.088177 0.020884,0.030166 0.058011,0.030166 h 0.1369066 q 0.1206634,0 0.1206634,0.074254 0,0.00928 -0.00464,0.027845 -0.013923,0.05105 -0.058011,0.076575 -0.041768,0.025525 -0.1276247,0.025525 H 3.6088556 L 3.379131,3.94163 q -0.00696,0.027845 -0.00696,0.048729 0,0.030166 0.011602,0.048729 0.011602,0.016243 0.032486,0.032486 0.016243,0.016243 0.023204,0.027845 0.00696,0.00928 0.00232,0.025525 Q 3.430181,4.15511 3.395374,4.169033 3.360567,4.182956 3.2886333,4.182956 H 2.7595709 q -0.060332,0 -0.088177,-0.018564 -0.027845,-0.020884 -0.018564,-0.05337 0.00928,-0.027845 0.048729,-0.048729 0.034807,-0.018564 0.058011,-0.044089 0.023205,-0.025525 0.039448,-0.081216 L 2.9800136,3.3429539 q 0.011602,-0.034807 0.011602,-0.071934 0,-0.046409 -0.020884,-0.071934 -0.018564,-0.027845 -0.058011,-0.060332 -0.025525,-0.020884 -0.039448,-0.034807 -0.011602,-0.016243 -0.011602,-0.037127 -0.00232,-0.044088 0.030166,-0.062652 0.034807,-0.018564 0.1299452,-0.018564 h 0.058011 q -0.016243,-0.058011 -0.016243,-0.1160225 0,-0.058011 0.020884,-0.1206634 0.044088,-0.1183429 0.1879564,-0.1995587 0.1461884,-0.081216 0.4316038,-0.081216 z"
       style="font-style:normal;font-variant:normal;font-weight:normal;font-stretch:normal;font-size:2.32045px;line-height:1.25;font-family:Shrikhand;-inkscape-font-specification:Shrikhand;fill:#99e2d0;fill-opacity:1;stroke:none;stroke-width:0.0580115"
       id="path843" />
  </g>
</svg>
