<?xml version="1.0" encoding="UTF-8" standalone="no"?>
<svg
   xmlns:dc="http://purl.org/dc/elements/1.1/"
   xmlns:cc="http://creativecommons.org/ns#"
   xmlns:rdf="http://www.w3.org/1999/02/22-rdf-syntax-ns#"
   xmlns:svg="http://www.w3.org/2000/svg"
   xmlns="http://www.w3.org/2000/svg"
   xmlns:xlink="http://www.w3.org/1999/xlink"
   xmlns:sodipodi="http://sodipodi.sourceforge.net/DTD/sodipodi-0.dtd"
   xmlns:inkscape="http://www.inkscape.org/namespaces/inkscape"
   width="100"
   height="100"
   viewBox="0 0 26.458333 26.458334"
   version="1.1"
   id="svg8"
   inkscape:version="1.0.1 (3bc2e813f5, 2020-09-07)"
   sodipodi:docname="warning.svg">
  <style
     id="style833"></style>
  <defs
     id="defs2">
    <linearGradient
       inkscape:collect="always"
       id="linearGradient913">
      <stop
         style="stop-color:#ff79da;stop-opacity:1"
         offset="0"
         id="stop909" />
      <stop
         style="stop-color:#9356dc;stop-opacity:1"
         offset="1"
         id="stop911" />
    </linearGradient>
    <linearGradient
       inkscape:collect="always"
       xlink:href="#linearGradient913"
       id="linearGradient915"
       x1="5.8231888"
       y1="22.39509"
       x2="19.12324"
       y2="14.45759"
       gradientUnits="userSpaceOnUse" />
    <linearGradient
       inkscape:collect="always"
       xlink:href="#linearGradient913"
       id="linearGradient923"
       x1="-4.3213512e-07"
       y1="13.229167"
       x2="26.458334"
       y2="13.229167"
       gradientUnits="userSpaceOnUse" />
  </defs>
  <sodipodi:namedview
     id="base"
     pagecolor="#ffffff"
     bordercolor="#666666"
     borderopacity="1.0"
     inkscape:pageopacity="0.0"
     inkscape:pageshadow="2"
     inkscape:zoom="5.6"
     inkscape:cx="37.958514"
     inkscape:cy="70.408826"
     inkscape:document-units="mm"
     inkscape:current-layer="layer1"
     inkscape:document-rotation="0"
     showgrid="false"
     inkscape:window-width="1920"
     inkscape:window-height="1017"
     inkscape:window-x="-8"
     inkscape:window-y="1072"
     inkscape:window-maximized="1"
     units="px" />
  <metadata
     id="metadata5">
    <rdf:RDF>
      <cc:Work
         rdf:about="">
        <dc:format>image/svg+xml</dc:format>
        <dc:type
           rdf:resource="http://purl.org/dc/dcmitype/StillImage" />
        <dc:title />
      </cc:Work>
    </rdf:RDF>
  </metadata>
  <g
     inkscape:label="Calque 1"
     inkscape:groupmode="layer"
     id="layer1">
    <path
       style="fill:#ffffff;fill-opacity:1;stroke:url(#linearGradient923);stroke-width:2.41119;stroke-linecap:butt;stroke-linejoin:round;stroke-miterlimit:4;stroke-dasharray:none;stroke-opacity:1"
       d="M 1.2055201,25.252739 H 25.252813 L 13.229167,1.2054453 Z"
       id="path860" />
    <path
       fill="currentColor"
       d="m 13.227244,13.696241 c 0.01538,0.09048 0.309937,1.81921 0.309937,2.479516 0,1.006826 -0.535179,1.724883 -1.326388,2.013645 l 0.248336,4.583644 c 0.0135,0.263736 -0.19636,0.487047 -0.462021,0.487047 h -1.232059 c -0.263738,0 -0.475498,-0.221386 -0.462023,-0.487047 l 0.248337,-4.583644 C 9.7582249,17.90064 9.2249749,17.180658 9.2249749,16.175757 c 0,-0.662231 0.294539,-2.389039 0.30994,-2.479516 0.0616,-0.390795 0.8720661,-0.39657 0.9221191,0.02119 v 2.718228 c 0.02502,0.06545 0.290688,0.0616 0.308015,0 0.02695,-0.487047 0.152082,-2.679727 0.154007,-2.729778 0.06353,-0.40042 0.860517,-0.40042 0.922118,0 0.0036,0.052 0.127058,2.242731 0.154009,2.729778 0.01731,0.0616 0.284912,0.06545 0.308012,0 v -2.718228 c 0.05006,-0.41582 0.862442,-0.41197 0.924049,-0.02119 z m 2.294706,5.499987 -0.288761,3.563343 c -0.02313,0.269511 0.190578,0.500522 0.460096,0.500522 h 1.078051 c 0.256036,0 0.462022,-0.205985 0.462022,-0.462022 v -8.932427 c 0,-0.254111 -0.205986,-0.462021 -0.462022,-0.462021 -1.588204,0 -4.262156,3.436291 -1.249386,5.792605 z"
       id="path845"
       style="fill:url(#linearGradient915);fill-opacity:1;stroke:none;stroke-width:0.0192509;stroke-opacity:1" />
  </g>
</svg>
